#tb 0: 1/25
#media_type 0: video
#codec_id 0: rawvideo
#dimensions 0: 176x288
#sar 0: 0/1
0,          0,          0,        1,   152064, 0xf1650d02
0,          1,          1,        1,   152064, 0xeda21037
0,          2,          2,        1,   152064, 0x72eeb8f7
0,          3,          3,        1,   152064, 0xf0a32dc4
0,          4,          4,        1,   152064, 0x2f67031f
